<svg width="24" height="23" viewBox="0 0 24 23" fill="none" xmlns="http://www.w3.org/2000/svg">
<g filter="url(#filter0_di_40004615_15979)">
<path d="M2.23486 4.47119C2.23486 4.27228 2.31388 4.08151 2.45453 3.94086C2.59519 3.80021 2.78595 3.72119 2.98486 3.72119C5.64786 3.72119 8.24286 2.77819 10.7849 0.871192C10.9147 0.773825 11.0726 0.721191 11.2349 0.721191C11.3971 0.721191 11.555 0.773825 11.6849 0.871192C14.2269 2.77819 16.8219 3.72119 19.4849 3.72119C19.6838 3.72119 19.8745 3.80021 20.0152 3.94086C20.1558 4.08151 20.2349 4.27228 20.2349 4.47119V9.72119C20.2349 9.92689 19.9811 10.0299 19.8157 9.90757C19.4065 9.60505 18.9344 9.39405 18.4315 9.2919C17.7517 9.15381 17.0461 9.22089 16.4044 9.48461C15.7627 9.74834 15.2139 10.1968 14.8276 10.7731C14.4413 11.3494 14.235 12.0274 14.2349 12.7212C14.2349 12.7503 14.2144 12.7753 14.186 12.7817C13.6409 12.9043 13.1521 13.2062 12.7982 13.6397C12.4338 14.0862 12.2347 14.6449 12.2349 15.2212V20.2212C12.2349 20.309 12.1855 20.3906 12.1047 20.425C11.9101 20.5082 11.7114 20.5896 11.5089 20.6692C11.3324 20.7386 11.1363 20.7386 10.9599 20.6692C5.19286 18.3972 2.23486 14.7212 2.23486 9.72119V4.47119ZM14.7349 13.7212C15.011 13.7212 15.2349 13.4973 15.2349 13.2212V12.7212C15.2349 12.0582 15.4983 11.4223 15.9671 10.9534C16.4359 10.4846 17.0718 10.2212 17.7349 10.2212C18.3979 10.2212 19.0338 10.4846 19.5026 10.9534C19.9715 11.4223 20.2349 12.0582 20.2349 12.7212V13.2212C20.2349 13.4973 20.4587 13.7212 20.7349 13.7212C21.1327 13.7212 21.5142 13.8792 21.7955 14.1605C22.0768 14.4418 22.2349 14.8234 22.2349 15.2212V20.2212C22.2349 20.619 22.0768 21.0005 21.7955 21.2819C21.5142 21.5632 21.1327 21.7212 20.7349 21.7212H14.7349C14.337 21.7212 13.9555 21.5632 13.6742 21.2819C13.3929 21.0005 13.2349 20.619 13.2349 20.2212V15.2212C13.2349 14.8234 13.3929 14.4418 13.6742 14.1605C13.9555 13.8792 14.337 13.7212 14.7349 13.7212ZM16.7349 12.7212C16.7349 13.2735 17.1826 13.7212 17.7349 13.7212C18.2871 13.7212 18.7349 13.2735 18.7349 12.7212C18.7349 12.456 18.6295 12.2016 18.442 12.0141C18.2544 11.8265 18.0001 11.7212 17.7349 11.7212C17.4696 11.7212 17.2153 11.8265 17.0278 12.0141C16.8402 12.2016 16.7349 12.456 16.7349 12.7212ZM18.7349 17.7212C18.7349 17.456 18.6295 17.2016 18.442 17.0141C18.2544 16.8265 18.0001 16.7212 17.7349 16.7212C17.4696 16.7212 17.2153 16.8265 17.0278 17.0141C16.8402 17.2016 16.7349 17.456 16.7349 17.7212C16.7349 17.9864 16.8402 18.2408 17.0278 18.4283C17.2153 18.6158 17.4696 18.7212 17.7349 18.7212C18.0001 18.7212 18.2544 18.6158 18.442 18.4283C18.6295 18.2408 18.7349 17.9864 18.7349 17.7212Z" fill="#1A77F2"/>
</g>
<defs>
<filter id="filter0_di_40004615_15979" x="-0.000112534" y="0.000194073" width="24.47" height="25.47" filterUnits="userSpaceOnUse" color-interpolation-filters="sRGB">
<feFlood flood-opacity="0" result="BackgroundImageFix"/>
<feColorMatrix in="SourceAlpha" type="matrix" values="0 0 0 0 0 0 0 0 0 0 0 0 0 0 0 0 0 0 127 0" result="hardAlpha"/>
<feOffset dy="1.51398"/>
<feGaussianBlur stdDeviation="1.11749"/>
<feComposite in2="hardAlpha" operator="out"/>
<feColorMatrix type="matrix" values="0 0 0 0 0.25098 0 0 0 0 0.494118 0 0 0 0 0.956863 0 0 0 0.15 0"/>
<feBlend mode="normal" in2="BackgroundImageFix" result="effect1_dropShadow_40004615_15979"/>
<feBlend mode="normal" in="SourceGraphic" in2="effect1_dropShadow_40004615_15979" result="shape"/>
<feColorMatrix in="SourceAlpha" type="matrix" values="0 0 0 0 0 0 0 0 0 0 0 0 0 0 0 0 0 0 127 0" result="hardAlpha"/>
<feOffset dy="0.25233"/>
<feGaussianBlur stdDeviation="0.126165"/>
<feComposite in2="hardAlpha" operator="arithmetic" k2="-1" k3="1"/>
<feColorMatrix type="matrix" values="0 0 0 0 1 0 0 0 0 1 0 0 0 0 1 0 0 0 0.25 0"/>
<feBlend mode="normal" in2="shape" result="effect2_innerShadow_40004615_15979"/>
</filter>
</defs>
</svg>
