<svg width="19" height="16" viewBox="0 0 19 16" fill="none" xmlns="http://www.w3.org/2000/svg">
<mask id="path-1-inside-1_40004615_16001" fill="white">
<path d="M14.1992 8C16.4085 8 18.2002 9.79086 18.2002 12C18.2002 14.2091 16.4085 16 14.1992 16C11.9901 15.9997 10.1992 14.209 10.1992 12C10.1992 9.79102 11.9901 8.00025 14.1992 8Z"/>
</mask>
<path d="M14.1992 8V7H14.1991L14.1992 8ZM18.2002 12H19.2002H18.2002ZM14.1992 16L14.1991 17H14.1992V16ZM10.1992 12H9.19922H10.1992ZM14.1992 8V9C15.8565 9 17.2002 10.3434 17.2002 12H18.2002H19.2002C19.2002 9.23828 16.9605 7 14.1992 7V8ZM18.2002 12H17.2002C17.2002 13.6566 15.8565 15 14.1992 15V16V17C16.9605 17 19.2002 14.7617 19.2002 12H18.2002ZM14.1992 16L14.1993 15C12.5424 14.9998 11.1992 13.6566 11.1992 12H10.1992H9.19922C9.19922 14.7614 11.4379 16.9997 14.1991 17L14.1992 16ZM10.1992 12H11.1992C11.1992 10.3434 12.5424 9.00019 14.1993 9L14.1992 8L14.1991 7C11.4379 7.00032 9.19922 9.23864 9.19922 12H10.1992Z" fill="white" mask="url(#path-1-inside-1_40004615_16001)"/>
<path d="M14.4019 9.75146C14.6408 9.75144 14.839 9.83029 15.0054 9.98877C15.1715 10.1471 15.2517 10.3323 15.2515 10.5532V11.0845H15.6011C15.6732 11.0845 15.7308 11.1072 15.7808 11.1548C15.8305 11.2021 15.8511 11.2531 15.8511 11.3149V13.2202C15.8511 13.2823 15.8302 13.3331 15.7808 13.3804C15.7311 13.4278 15.6742 13.4507 15.6021 13.4507H13.2017C13.1294 13.4507 13.0718 13.4278 13.022 13.3804C12.9727 13.3333 12.9518 13.2825 12.9517 13.2202V11.3149C12.9518 11.253 12.9724 11.2019 13.022 11.1548C13.0721 11.1072 13.1295 11.0846 13.2017 11.0845H13.5513V10.5532C13.5513 10.332 13.6315 10.1467 13.7974 9.98877C13.9638 9.83042 14.1626 9.75157 14.4019 9.75146ZM14.4019 11.7368C14.2538 11.7366 14.1218 11.7881 14.0151 11.8901C13.9088 11.992 13.8515 12.1203 13.8511 12.2671C13.8507 12.4146 13.908 12.5439 14.0151 12.646C14.1221 12.7478 14.254 12.7988 14.4019 12.7983C14.5489 12.7978 14.6797 12.7466 14.7866 12.646L14.7876 12.645C14.8942 12.5432 14.9516 12.4151 14.9517 12.2681C14.9517 12.1208 14.8945 11.992 14.7876 11.8901C14.681 11.7886 14.5495 11.7371 14.4019 11.7368ZM14.4019 9.83154C14.1981 9.83154 14.0182 9.90186 13.8726 10.0405C13.727 10.1793 13.6509 10.353 13.6509 10.5532V11.0845H15.1519V10.5532C15.1518 10.353 15.0758 10.1794 14.9302 10.0405C14.7847 9.90196 14.6054 9.83165 14.4019 9.83154Z" stroke="white" stroke-width="0.3"/>
<mask id="path-4-inside-2_40004615_16001" fill="white">
<path d="M10.7549 9C9.92384 9.73297 9.39844 10.8048 9.39844 12C9.39844 13.3813 10.0993 14.5987 11.1641 15.3174C10.0122 15.7786 8.64353 16 7.2002 16C5.2922 16 3.51493 15.6138 2.19629 14.7969C0.85699 13.9659 0 12.691 0 11C-2.74337e-06 10.7366 0.0532594 10.4757 0.157227 10.2324C0.261122 9.98936 0.41364 9.76876 0.605469 9.58301C0.797488 9.39717 1.02569 9.24939 1.27637 9.14941C1.52698 9.04946 1.79552 8.99883 2.06641 9H10.7549ZM7.2002 0C8.29145 0 9.33872 0.42173 10.1104 1.17188C10.8818 1.92199 11.3154 2.93929 11.3154 4C11.3154 5.06071 10.8818 6.07801 10.1104 6.82812C9.33872 7.57827 8.29145 8 7.2002 8C6.10906 7.99991 5.06257 7.57819 4.29102 6.82812C3.5195 6.078 3.08594 5.06078 3.08594 4C3.08594 2.93922 3.5195 1.922 4.29102 1.17188C5.06257 0.421807 6.10906 8.73069e-05 7.2002 0Z"/>
</mask>
<path d="M10.7549 9L11.4163 9.74997L13.4005 8H10.7549V9ZM11.1641 15.3174L11.5358 16.2457L13.2877 15.5443L11.7235 14.4885L11.1641 15.3174ZM7.2002 16L7.20017 17H7.2002V16ZM2.19629 14.7969L1.66906 15.6466L1.66964 15.647L2.19629 14.7969ZM0 11H1V11L0 11ZM0.157227 10.2324L-0.762296 9.83938L-0.762299 9.83939L0.157227 10.2324ZM0.605469 9.58301L-0.0899724 8.86442L-0.0901678 8.86461L0.605469 9.58301ZM1.27637 9.14941L0.905922 8.22056L0.905904 8.22057L1.27637 9.14941ZM2.06641 9L2.0621 10H2.06641V9ZM7.2002 0V-1H7.20012L7.2002 0ZM10.1104 1.17188L10.8075 0.454935L10.8074 0.454854L10.1104 1.17188ZM11.3154 4H12.3154H11.3154ZM10.1104 6.82812L10.8074 7.54515L10.8075 7.54507L10.1104 6.82812ZM7.2002 8L7.20012 9H7.2002V8ZM4.29102 6.82812L3.59392 7.5451L3.59396 7.54515L4.29102 6.82812ZM3.08594 4H2.08594H3.08594ZM4.29102 1.17188L3.59396 0.454854L3.59392 0.454898L4.29102 1.17188ZM10.7549 9L10.0934 8.25003C9.05701 9.16412 8.39844 10.505 8.39844 12H9.39844H10.3984C10.3984 11.1047 10.7907 10.3018 11.4163 9.74997L10.7549 9ZM9.39844 12H8.39844C8.39844 13.728 9.27651 15.2498 10.6046 16.1462L11.1641 15.3174L11.7235 14.4885C10.922 13.9475 10.3984 13.0345 10.3984 12H9.39844ZM11.1641 15.3174L10.7924 14.389C9.78542 14.7922 8.54851 15 7.2002 15V16V17C8.73856 17 10.239 16.7649 11.5358 16.2457L11.1641 15.3174ZM7.2002 16L7.20022 15C5.40757 15 3.83248 14.6342 2.72294 13.9468L2.19629 14.7969L1.66964 15.647C3.19738 16.5934 5.17682 17 7.20017 17L7.2002 16ZM2.19629 14.7969L2.72352 13.9472C1.63253 13.2702 1 12.2945 1 11H0H-1C-1 13.0875 0.0814538 14.6615 1.66906 15.6466L2.19629 14.7969ZM0 11L1 11C0.999999 10.8716 1.02593 10.7443 1.07675 10.6255L0.157227 10.2324L-0.762299 9.83939C-0.919415 10.207 -1 10.6016 -1 11L0 11ZM0.157227 10.2324L1.07675 10.6255C1.12752 10.5067 1.2032 10.3962 1.30111 10.3014L0.605469 9.58301L-0.0901678 8.86461C-0.375919 9.14131 -0.605278 9.47204 -0.762296 9.83938L0.157227 10.2324ZM0.605469 9.58301L1.30091 10.3016C1.39906 10.2066 1.51679 10.1301 1.64683 10.0783L1.27637 9.14941L0.905904 8.22057C0.534599 8.36866 0.195918 8.58774 -0.0899724 8.86442L0.605469 9.58301ZM1.27637 9.14941L1.64681 10.0783C1.7772 10.0263 1.91843 9.99937 2.0621 9.99999L2.06641 9L2.07071 8.00001C1.67262 7.9983 1.27677 8.07266 0.905922 8.22056L1.27637 9.14941ZM2.06641 9V10H10.7549V9V8H2.06641V9ZM7.2002 0V1C8.03519 1 8.83122 1.32303 9.4133 1.8889L10.1104 1.17188L10.8074 0.454854C9.84621 -0.479569 8.54771 -1 7.2002 -1V0ZM10.1104 1.17188L9.41322 1.88882C9.99429 2.45384 10.3154 3.21389 10.3154 4H11.3154H12.3154C12.3154 2.66468 11.7693 1.39014 10.8075 0.454935L10.1104 1.17188ZM11.3154 4H10.3154C10.3154 4.78611 9.99429 5.54616 9.41322 6.11118L10.1104 6.82812L10.8075 7.54507C11.7693 6.60986 12.3154 5.33532 12.3154 4H11.3154ZM10.1104 6.82812L9.4133 6.1111C8.83122 6.67697 8.03519 7 7.2002 7V8V9C8.54771 9 9.84621 8.47957 10.8074 7.54515L10.1104 6.82812ZM7.2002 8L7.20028 7C6.36553 6.99993 5.5702 6.67702 4.98807 6.1111L4.29102 6.82812L3.59396 7.54515C4.55494 8.47936 5.85259 8.99989 7.20012 9L7.2002 8ZM4.29102 6.82812L4.98811 6.11115C4.40701 5.54616 4.08594 4.78621 4.08594 4H3.08594H2.08594C2.08594 5.33535 2.63198 6.60984 3.59392 7.5451L4.29102 6.82812ZM3.08594 4H4.08594C4.08594 3.21379 4.40701 2.45384 4.98811 1.88885L4.29102 1.17188L3.59392 0.454898C2.63198 1.39016 2.08594 2.66465 2.08594 4H3.08594ZM4.29102 1.17188L4.98807 1.8889C5.5702 1.32298 6.36553 1.00007 7.20028 1L7.2002 0L7.20012 -1C5.85259 -0.999892 4.55494 -0.479361 3.59396 0.454854L4.29102 1.17188Z" fill="white" mask="url(#path-4-inside-2_40004615_16001)"/>
</svg>
