<svg width="21" height="20" viewBox="0 0 21 20" fill="none" xmlns="http://www.w3.org/2000/svg">
<path d="M17.6499 10.6499L17.6499 0.649902M2.6499 8.6499L2.6499 0.649902M2.6499 18.6499L2.6499 14.6499M10.1499 18.6499L10.1499 8.6499M17.6499 18.6499L17.6499 16.6499M10.1499 2.6499L10.1499 0.649902M19.6499 12.1499C19.6499 12.6159 19.6499 12.8489 19.5739 13.0329C19.4722 13.2774 19.2776 13.4716 19.0329 13.5729C18.8489 13.6499 18.6159 13.6499 18.1499 13.6499L17.1499 13.6499C16.6839 13.6499 16.4509 13.6499 16.2669 13.5739C16.0224 13.4722 15.8282 13.2776 15.7269 13.0329C15.6499 12.8489 15.6499 12.6159 15.6499 12.1499C15.6499 11.6839 15.6499 11.4509 15.7259 11.2669C15.8276 11.0224 16.0222 10.8282 16.2669 10.7269C16.4509 10.6499 16.6839 10.6499 17.1499 10.6499L18.1499 10.6499C18.6159 10.6499 18.8489 10.6499 19.0329 10.7259C19.2774 10.8276 19.4716 11.0222 19.5729 11.2669C19.6499 11.4509 19.6499 11.6839 19.6499 12.1499ZM4.6499 10.1499C4.6499 10.6159 4.6499 10.8489 4.5739 11.0329C4.47219 11.2774 4.27763 11.4716 4.0329 11.5729C3.8489 11.6499 3.6159 11.6499 3.1499 11.6499L2.1499 11.6499C1.6839 11.6499 1.4509 11.6499 1.2669 11.5739C1.02236 11.4722 0.828157 11.2776 0.7269 11.0329C0.6499 10.8489 0.649901 10.6159 0.649901 10.1499C0.649901 9.6839 0.649901 9.4509 0.725901 9.2669C0.827611 9.02236 1.02217 8.82816 1.2669 8.7269C1.4509 8.6499 1.6839 8.6499 2.1499 8.6499L3.1499 8.6499C3.6159 8.6499 3.8489 8.6499 4.0329 8.7259C4.27744 8.82761 4.47164 9.02217 4.5729 9.2669C4.6499 9.4509 4.6499 9.6839 4.6499 10.1499ZM12.1499 7.1499C12.1499 7.6159 12.1499 7.8489 12.0739 8.0329C11.9722 8.27744 11.7776 8.47165 11.5329 8.5729C11.3489 8.6499 11.1159 8.6499 10.6499 8.6499L9.6499 8.6499C9.1839 8.6499 8.9509 8.6499 8.7669 8.5739C8.52236 8.47219 8.32816 8.27763 8.2269 8.0329C8.1499 7.8489 8.1499 7.6159 8.1499 7.1499C8.1499 6.6839 8.1499 6.4509 8.2259 6.2669C8.32761 6.02236 8.52217 5.82816 8.7669 5.7269C8.9509 5.6499 9.1839 5.6499 9.6499 5.6499L10.6499 5.6499C11.1159 5.6499 11.3489 5.6499 11.5329 5.7259C11.7774 5.82761 11.9716 6.02217 12.0729 6.2669C12.1499 6.4509 12.1499 6.6839 12.1499 7.1499Z" stroke="white" stroke-width="1.3" stroke-linecap="round" stroke-linejoin="round"/>
</svg>
