<svg width="28" height="38" viewBox="0 0 28 38" fill="none" xmlns="http://www.w3.org/2000/svg">
<path d="M20.6509 11.4043C21.1388 11.4043 21.5151 11.8165 21.5151 12.292C21.5151 12.5094 21.4374 12.7203 21.2954 12.8838L21.2896 12.8896L21.2847 12.8955L11.4683 23.1299L11.4673 23.1318C11.307 23.2969 11.0873 23.3945 10.8521 23.3945C10.6481 23.3945 10.453 23.3198 10.3003 23.1895L10.2378 23.1309L6.96631 19.7197L6.96045 19.7139C6.80902 19.5476 6.7281 19.3304 6.72803 19.1084C6.72803 18.6329 7.10436 18.2207 7.59229 18.2207C7.78877 18.2207 7.97651 18.2889 8.12744 18.4111L8.18994 18.4678L8.19678 18.4736L10.854 21.2441L20.0562 11.6494L20.061 11.6436L20.0669 11.6377C20.2245 11.4887 20.4331 11.4044 20.6509 11.4043Z" fill="#1A77F2" stroke="#1A77F2" stroke-width="0.637079"/>
<path d="M13.9891 0.57373L0.530762 6.08269V17.5172C0.530762 33.3141 13.8022 36.5319 13.936 36.562L13.988 36.5737L14.039 36.563C14.1728 36.5349 27.4474 33.572 27.4474 17.5162V6.08269L13.9891 0.57373ZM26.9526 17.5172C26.9526 32.6406 14.8831 35.8321 13.9912 36.0462C13.0993 35.8155 1.02556 32.3972 1.02556 17.5172V6.43406L13.9891 1.12852L26.9526 6.43406V17.5172Z" stroke="white" stroke-width="1.0618"/>
</svg>
